<svg width="946" height="682" viewBox="0 0 946 682" fill="none" xmlns="http://www.w3.org/2000/svg">
<path d="M673.78 0.420913C665.27 14.0109 655.62 30.4009 659.35 47.1109C662.34 60.4809 673.75 69.2307 680.63 80.4607C684.54 86.8307 686.17 93.6708 684.6 101.091C682.84 109.421 679.03 117.051 678 125.571C675.99 142.291 681.61 158.931 689.11 173.641C693.04 181.341 697.71 188.571 702.31 195.871C706.74 202.901 710.2 210.091 712.17 218.191C715.43 231.611 715.78 246.571 723.47 258.491C732.1 271.891 748.31 275.971 763.4 275.301C772.69 274.891 781.78 272.931 790.97 271.671C795.49 271.051 799.96 271.011 804.28 272.661C808.07 274.121 811.42 276.601 814.35 279.361C824.81 289.241 831.45 302.811 835.88 316.321C840.48 330.341 842.95 345.211 842.79 359.981C842.75 363.271 842.57 366.551 842.22 369.821C842.1 370.971 843.9 370.961 844.02 369.821C845.49 355.821 844.1 341.501 840.94 327.811C837.75 314.011 832.62 300.271 824.5 288.581C820.46 282.761 815.58 277.101 809.52 273.311C806.56 271.461 803.27 270.131 799.81 269.651C795.54 269.061 791.25 269.791 787.04 270.451C770.07 273.141 751.03 276.981 735.34 267.571C722.02 259.581 718.95 244.231 716.4 230.091C715.14 223.121 713.91 216.071 711.42 209.411C708.42 201.401 703.44 194.411 698.94 187.201C689.86 172.671 681.65 156.591 679.78 139.321C678.87 130.891 679.73 122.571 682.34 114.501C684.84 106.771 688.13 99.0207 686.68 90.7307C684.42 77.7507 673.04 68.8508 666.21 58.2908C662.05 51.8508 659.87 44.7208 660.43 37.0108C661.07 28.2708 664.69 19.9508 668.81 12.3408C670.84 8.59083 673.06 4.94082 675.32 1.33083C675.95 0.350825 674.4 -0.559087 673.78 0.420913Z" fill="black"/>
<path d="M795.22 271.211C809.42 267.761 821.91 258.371 829.17 245.681C829.75 244.671 828.19 243.771 827.62 244.771C820.57 257.071 808.51 266.121 794.74 269.471C793.61 269.751 794.09 271.491 795.22 271.211Z" fill="black"/>
<path d="M781.28 57.7807C781.61 51.4407 787.61 47.2208 793.5 46.6008C799.97 45.9208 806.62 48.3307 812.14 51.5307C822.54 57.5707 830.16 67.6508 834.24 78.8608C838.76 91.2708 839.45 105.051 837.5 118.051C835.79 129.431 831.89 140.651 825.11 150.031C821.4 155.161 816.54 160.331 810.89 163.331C809.14 164.261 807.1 164.871 805.2 164.011C803.9 163.411 802.81 162.371 801.99 161.211C800.33 158.861 799.44 155.751 800.02 152.901C800.25 151.771 798.52 151.291 798.28 152.421C797.27 157.381 799.81 163.701 804.67 165.741C807.92 167.101 811.27 165.401 813.94 163.551C816.46 161.801 818.82 159.821 820.98 157.651C829.89 148.691 835.37 136.761 838.1 124.541C841.15 110.881 841.23 96.1008 837.33 82.6008C833.67 69.9208 826.01 58.2908 814.8 51.0808C809.2 47.4708 802.47 44.7407 795.73 44.7107C789.45 44.6807 782.97 47.6609 780.39 53.6909C779.83 55.0109 779.53 56.3808 779.46 57.8008C779.42 58.9308 781.22 58.9307 781.28 57.7807Z" fill="black"/>
<path d="M795.25 99.4409C793.05 108.871 794.16 118.801 798.36 127.511C798.86 128.551 800.42 127.641 799.91 126.601C795.92 118.341 794.89 108.841 796.98 99.9109C797.25 98.7909 795.51 98.3109 795.25 99.4409Z" fill="black"/>
<path d="M683.5 7.24069C691.23 20.0807 701.85 30.9408 712.78 41.0908C723.17 50.7308 735.1 59.8708 749.53 61.9008C757.16 62.9708 765.03 62.0307 771.83 58.2607C772.84 57.7007 771.94 56.1407 770.92 56.7107C758.6 63.5507 743.57 60.4309 731.95 53.6709C725.78 50.0809 720.25 45.5207 715 40.7107C709.8 35.9407 704.74 31.0008 699.96 25.8208C694.4 19.8008 689.28 13.3808 685.05 6.3508C684.46 5.3408 682.9 6.24069 683.5 7.24069Z" fill="black"/>
<path d="M833.36 66.5609C845.55 70.5109 856.91 76.9308 866.65 85.2508C876.36 93.5408 884.48 103.671 890.3 115.041C897.2 128.521 900.76 143.361 904.33 157.991C907.6 171.361 910.96 184.761 916.83 197.281C922.16 208.641 929.55 219.281 939.84 226.671C941.13 227.601 942.46 228.461 943.82 229.271C944.82 229.861 945.72 228.311 944.73 227.721C933.59 221.071 925.52 210.611 919.74 199.161C913.49 186.771 909.94 173.341 906.66 159.931C903.09 145.381 899.7 130.661 893.28 117.041C887.8 105.411 879.98 94.9208 870.5 86.2508C861.14 77.6908 850.2 70.891 838.34 66.401C836.85 65.841 835.35 65.3109 833.84 64.8209C832.73 64.4709 832.26 66.2109 833.36 66.5609Z" fill="black"/>
<path d="M941.66 314.461C930.48 336.281 906.17 345.541 884.41 353.121C873.41 356.951 862.52 360.971 851.91 365.781C841.81 370.351 831.96 375.481 822.41 381.111C803.37 392.351 785.51 405.611 769.24 420.591C752.97 435.561 738.29 452.261 725.58 470.361C711.31 490.681 699.76 512.961 683.74 532.041C681.9 534.231 679.98 536.361 678.03 538.461C677.24 539.311 678.51 540.581 679.3 539.731C696.26 521.601 708.26 499.641 721.85 479.041C734.28 460.191 748.76 442.751 765 427.061C781 411.601 798.64 397.871 817.55 386.151C836.72 374.271 857.13 364.621 878.39 357.121C900.33 349.381 924.58 341.921 938.97 322.251C940.57 320.071 941.98 317.771 943.21 315.361C943.74 314.341 942.19 313.431 941.66 314.461Z" fill="black"/>
<path d="M940.82 406.671C917.66 424.591 887.24 427.101 859.59 433.161C844.97 436.371 830.79 440.961 817.36 447.621C803.19 454.651 790.5 463.771 778.54 474.071C772.27 479.471 766.1 485.011 759.53 490.051C752.94 495.111 745.91 499.531 738.71 503.661C724.13 512.021 709.21 519.761 694.72 528.291C680.13 536.871 665.78 545.871 651.69 555.251C638.07 564.321 624.32 573.521 611.55 583.771C605.38 588.721 599.82 594.221 595.02 600.531C590.05 607.061 585.79 614.111 581.42 621.051C571.96 636.071 562.51 651.091 553.05 666.111C550.67 669.891 548.29 673.681 545.9 677.461C545.28 678.441 546.84 679.351 547.45 678.371C556.98 663.241 566.5 648.101 576.03 632.971C580.57 625.751 585.05 618.491 589.69 611.331C594.15 604.451 598.94 597.791 604.82 592.051C610.63 586.381 617.19 581.571 623.75 576.821C630.61 571.861 637.54 566.991 644.53 562.231C658.42 552.771 672.56 543.691 686.95 535.001C701.29 526.351 715.92 518.241 730.62 510.211C737.91 506.231 745.17 502.151 752.09 497.541C758.83 493.051 765.12 487.981 771.26 482.701C777.42 477.411 783.46 471.981 789.86 466.991C796.15 462.081 802.8 457.641 809.73 453.691C823.17 446.031 837.61 440.361 852.62 436.621C879.7 429.861 909.17 428.281 933.66 413.681C936.58 411.941 939.37 410.011 942.06 407.931C943.01 407.231 941.73 405.971 940.82 406.671Z" fill="black"/>
<path d="M678.46 540.471C691.57 538.251 704.99 541.551 716.84 547.161C729.02 552.931 739.86 561.121 749.39 570.591C768.42 589.521 783.94 611.911 795.15 636.281C801.48 650.061 806.4 664.471 809.83 679.241C810.09 680.371 811.83 679.891 811.57 678.761C808.48 665.441 804.17 652.431 798.73 639.881C793.27 627.291 786.66 615.191 779.02 603.781C771.38 592.371 762.71 581.641 753.13 571.801C743.63 562.051 733.03 553.441 720.91 547.161C709.22 541.101 695.96 537.041 682.68 538.131C681.11 538.261 679.55 538.461 678 538.731C676.84 538.921 677.32 540.661 678.46 540.471Z" fill="black"/>
<path d="M549.5 457.621C546.65 464.351 544.66 471.401 543.65 478.651C542.69 485.581 542.69 492.561 543.2 499.521C544.24 513.581 547.22 527.501 547.16 541.641C547.12 549.371 546.04 557.051 543.23 564.281C543.02 564.821 543.56 565.441 544.1 565.421C559.87 564.811 575.65 563.981 591.43 563.611C602.12 563.361 612.84 563.401 623.52 563.901C628.39 564.131 633.42 564.301 638.19 565.391C639.32 565.651 639.8 563.911 638.67 563.651C634.57 562.711 630.27 562.481 626.08 562.231C620.39 561.901 614.69 561.771 608.99 561.711C597.37 561.591 585.8 561.991 574.19 562.451C564.16 562.841 554.13 563.231 544.1 563.621C544.39 564.001 544.68 564.381 544.97 564.761C555.28 538.211 542.48 509.831 545 482.551C545.76 474.301 547.83 466.161 551.06 458.531C551.5 457.471 549.95 456.551 549.5 457.621Z" fill="black"/>
<path d="M551.03 457.701C576.46 454.281 601.32 463.031 626.47 465.061C637.04 465.911 647.73 465.801 658.32 465.591C668.96 465.371 679.58 464.901 690.21 464.511C703.97 464.001 717.74 463.641 731.51 463.671C732.67 463.671 732.67 461.871 731.51 461.871C708.22 461.811 684.98 463.131 661.7 463.711C651.35 463.971 640.98 464.051 630.64 463.531C617.86 462.901 605.29 460.321 592.7 458.181C578.77 455.821 564.64 454.061 550.54 455.951C549.4 456.111 549.89 457.851 551.03 457.701Z" fill="black"/>
<path d="M546.29 526.981C531.46 518.321 514.22 525.941 498.93 528.841C490.17 530.501 481.21 531.121 472.34 530.141C463.38 529.151 454.61 526.891 445.71 525.551C428.14 522.901 410.36 522.381 392.66 521.291C388.69 521.051 384.39 520.931 380.87 518.841C378.14 517.221 375.86 513.701 376.91 510.441C377.99 507.111 381.97 506.071 385.02 505.531C389.45 504.751 393.98 504.501 398.47 504.461C407.33 504.391 416.16 505.211 425.02 505.141C433.72 505.081 442.42 504.071 450.91 502.161C453.01 501.691 455.1 501.151 457.17 500.571C458.28 500.261 457.81 498.521 456.69 498.831C447.93 501.291 438.91 502.781 429.82 503.201C420.66 503.631 411.51 502.821 402.36 502.671C397.76 502.591 393.14 502.691 388.56 503.211C385.15 503.601 381.35 503.991 378.39 505.911C372.11 509.991 375.28 518.241 381.07 520.961C384.6 522.621 388.58 522.811 392.41 523.051C397.05 523.341 401.68 523.581 406.32 523.841C415.51 524.341 424.7 524.881 433.85 525.831C443.1 526.791 452.17 528.461 461.29 530.191C470.27 531.891 479.2 532.861 488.34 532.091C497.37 531.331 506.02 529.021 514.8 526.941C522.96 525.001 531.65 523.631 539.86 526.101C541.8 526.681 543.64 527.491 545.38 528.511C546.38 529.121 547.29 527.571 546.29 526.981Z" fill="black"/>
<path d="M354.09 485.471C350.55 485.631 347.11 484.181 344.54 481.771C343.53 480.821 342.58 479.491 343.75 478.301C344.59 477.451 345.81 476.971 346.88 476.501C353.62 473.491 360.75 471.531 367.48 468.491C374.32 465.401 380.66 461.551 386.86 457.341C389.92 455.261 393.11 453.241 396.74 452.351C400.64 451.391 404.7 451.681 408.67 451.531C423.28 450.961 437.02 443.441 451.75 444.491C459.5 445.041 466.2 448.831 473.07 452.091C479.92 455.341 486.93 458.281 494.06 460.881C508.53 466.161 523.51 470.061 538.71 472.491C540.6 472.791 542.5 473.071 544.4 473.331C545.53 473.481 546.02 471.751 544.88 471.591C528.86 469.401 513.06 465.621 497.79 460.291C490.12 457.621 482.59 454.561 475.23 451.111C468.17 447.811 461.32 443.781 453.45 442.841C438.05 440.991 423.66 449.191 408.43 449.731C404.37 449.871 400.24 449.631 396.25 450.611C392.54 451.521 389.25 453.541 386.12 455.661C379.6 460.071 372.95 464.101 365.73 467.301C358.91 470.321 351.65 472.161 344.93 475.411C342.81 476.431 340.58 478.191 341.63 480.811C342.71 483.521 346.21 485.531 348.81 486.481C350.5 487.101 352.29 487.351 354.08 487.271C355.25 487.221 355.25 485.421 354.09 485.471Z" fill="black"/>
<path d="M798.5 59.1409C808.27 66.8909 817.61 75.8008 823.18 87.1308C828.55 98.0608 830.38 112.531 823.75 123.381C820.53 128.641 814.74 133.381 808.2 132.351C807.07 132.171 806.58 133.901 807.72 134.091C813.67 135.031 819.16 132.001 822.94 127.551C827.02 122.761 829.04 116.581 829.6 110.371C830.82 96.9008 824.98 84.0008 816.55 73.8108C811.62 67.8508 805.82 62.6708 799.77 57.8708C798.88 57.1508 797.6 58.4209 798.5 59.1409Z" fill="black"/>
<path d="M544.45 564.021C540.23 559.511 539.46 553.051 539.21 547.131C538.91 540.111 539.03 532.921 541.57 526.271C541.98 525.191 540.24 524.721 539.83 525.791C537.15 532.801 537.06 540.501 537.44 547.901C537.76 554.081 538.79 560.591 543.18 565.281C543.97 566.151 545.24 564.871 544.45 564.021Z" fill="black"/>
<path d="M549.67 456.311C545.52 460.561 542.45 465.761 540.73 471.451C540.43 472.441 541.97 472.861 542.27 471.881C543.91 466.461 546.84 461.501 550.8 457.451C551.52 456.711 550.39 455.581 549.67 456.311Z" fill="black"/>
<path d="M445.84 502.061C447.18 499.491 447.74 496.311 447.31 493.451C446.92 490.901 445.56 488.781 444.06 486.741C442.92 485.201 441.69 483.721 440.3 482.39C439.76 481.881 439.13 481.121 438.37 480.991C437.93 480.911 437.44 480.931 436.99 480.901C434.2 480.691 431.41 480.381 428.65 479.911C426.89 479.611 425.12 479.251 423.41 478.721C422.14 478.331 420.73 477.871 419.75 476.931C419.54 476.721 419.17 476.581 418.87 476.701C415.16 478.151 411.13 478.98 407.2 479.58C403.01 480.22 398.76 480.481 394.52 480.341C393.68 480.311 393.29 480.301 392.67 480.751C392.05 481.201 391.42 481.65 390.79 482.08C386.32 485.2 381.57 488.481 376.42 490.341C375.62 490.631 374.63 490.711 373.99 491.271C373.31 491.861 372.7 492.581 372.06 493.231C371.33 493.971 370.59 494.721 369.86 495.461C368.99 496.341 367.8 496.941 366.74 497.551C363.64 499.331 360.23 500.161 356.7 500.591C353.24 501.011 349.62 501.001 346.28 499.911C345.17 499.551 343.58 498.98 343.02 497.85C342.4 496.6 343.71 495.341 344.54 494.561C347.08 492.181 350.35 490.301 353.32 488.521C360.73 484.101 367.89 479.491 374.53 473.961C377.89 471.171 381.1 468.21 384.17 465.1C385.64 463.61 387.05 461.93 388.86 460.83C390.66 459.74 392.76 459.371 394.8 459.051C404.19 457.571 413.52 455.8 422.77 453.6C427.26 452.53 431.72 451.251 436.29 450.481C440.97 449.691 445.73 449.681 450.38 450.701C452.56 451.181 454.68 451.871 456.74 452.731C457.81 453.181 458.27 451.441 457.22 450.991C452.88 449.181 448.23 448.18 443.53 448.1C438.79 448.02 434.12 448.96 429.54 450.08C419.82 452.44 410.11 454.681 400.25 456.361C397.93 456.751 395.6 457.081 393.28 457.491C391.21 457.851 389.16 458.421 387.42 459.631C385.66 460.851 384.24 462.481 382.74 463.991C381.18 465.571 379.58 467.111 377.94 468.611C371.15 474.821 363.72 480.291 355.81 484.971C352.35 487.021 348.89 489.061 345.62 491.411C343.62 492.851 340.3 495.24 341.2 498.14C341.97 500.62 345.23 501.6 347.47 502.1C351.38 502.97 355.45 502.691 359.37 502.001C362.82 501.391 365.92 500.23 368.9 498.37C370.85 497.15 372.25 495.631 373.86 494.001C374.22 493.641 374.57 493.281 374.93 492.921C375.05 492.801 375.16 492.671 375.28 492.561C375.5 492.381 375.34 492.581 375.22 492.611C376.46 492.221 377.67 491.831 378.86 491.301C381.67 490.051 384.33 488.47 386.93 486.83C389 485.52 391.04 484.141 393.03 482.711C393.28 482.531 393.72 482.051 394.03 481.981C394.03 482.001 394.04 482.031 394.04 482.051C394.06 482.251 394.22 482.28 394.53 482.14C394.83 482.17 395.17 482.161 395.47 482.161C396.01 482.171 396.55 482.171 397.09 482.171C398.28 482.161 399.47 482.131 400.65 482.061C406.67 481.721 412.77 480.701 418.49 478.751C418.78 478.651 419.07 478.551 419.35 478.441C419.06 478.361 418.77 478.291 418.47 478.211C420.25 479.911 422.99 480.561 425.32 481.091C428.25 481.751 431.24 482.151 434.22 482.461C435.26 482.571 436.29 482.661 437.33 482.731C437.59 482.751 437.89 482.811 438.15 482.781C438.62 482.741 437.85 482.701 437.82 482.611C437.9 482.831 438.47 483.161 438.64 483.321C439.19 483.821 439.71 484.35 440.21 484.89C441.78 486.59 443.23 488.481 444.39 490.491C446.22 493.671 445.95 497.951 444.28 501.161C443.75 502.181 445.3 503.091 445.84 502.061Z" fill="black"/>
<path d="M344.7 499.721C344.7 499.721 354.24 498.911 357.31 492.211C357.31 492.211 358.14 488.901 352.98 488.251" stroke="black" stroke-miterlimit="10"/>
<path d="M396.29 507.951C397.4 508.181 398.73 512.141 398.96 512.931C400.73 519.201 394.59 519.611 389.29 519.111C384.16 518.621 378.01 516.711 378.37 511.291C378.36 511.291 379.86 504.581 396.29 507.951Z" stroke="black" stroke-miterlimit="10"/>
<path d="M393.13 458.411C393.68 458.311 397.16 463.321 395.67 469.091" stroke="black" stroke-miterlimit="10" stroke-linecap="round" stroke-linejoin="round"/>
<path d="M391.32 466.491C391.32 466.491 386.84 465.351 386.07 461.001" stroke="black" stroke-miterlimit="10" stroke-linecap="round" stroke-linejoin="round"/>
<path d="M342.6 480.741C342.6 480.741 352.7 480.821 354.55 476.351C354.55 476.351 355.57 473.451 352.74 473.131" stroke="black" stroke-miterlimit="10" stroke-linecap="round" stroke-linejoin="round"/>
<path d="M13.2 270.531C13.22 270.581 0.739997 274.121 0.699997 285.151C0.699997 285.321 1.54993 288.601 1.62993 288.861L21.2 358.371C21.71 360.101 22.23 361.821 22.74 363.551C23.26 365.311 23.7901 367.061 24.3101 368.821C24.8401 370.601 25.3699 372.391 25.8999 374.171C26.4399 375.981 26.9801 377.781 27.5101 379.591C28.0501 381.421 28.5999 383.251 29.1399 385.081C29.6899 386.931 30.2401 388.771 30.7901 390.621C31.3401 392.481 31.9 394.341 32.45 396.201C33.01 398.071 33.5599 399.951 34.1199 401.821C34.6799 403.701 35.2401 405.581 35.8001 407.461C36.3601 409.351 36.92 411.231 37.48 413.121C38.04 415.011 38.6 416.901 39.17 418.791C39.73 420.681 40.2899 422.571 40.8599 424.451C41.4199 426.331 41.9801 428.221 42.5401 430.101C43.1001 431.981 43.66 433.851 44.22 435.731C44.78 437.601 45.3299 439.461 45.8899 441.331C46.4399 443.181 46.9901 445.031 47.5401 446.891C48.0901 448.731 48.63 450.561 49.18 452.401C49.72 454.221 50.2601 456.031 50.8001 457.851C51.3301 459.641 51.8699 461.441 52.3999 463.231C52.9299 465.001 53.45 466.761 53.98 468.531C54.5 470.271 55.0101 472.011 55.5301 473.741C56.0401 475.451 56.5401 477.151 57.0501 478.861C57.5501 480.531 58.0401 482.201 58.5401 483.871C59.0301 485.501 59.51 487.131 60 488.761C60.47 490.351 60.95 491.941 61.42 493.531C61.88 495.071 62.3401 496.621 62.8001 498.161C63.2501 499.661 63.6899 501.151 64.1399 502.651C64.5699 504.101 65 505.541 65.43 506.991C65.84 508.381 66.26 509.771 66.67 511.161C67.07 512.491 67.4599 513.831 67.8599 515.161C68.2399 516.431 68.62 517.711 69 518.981C69.36 520.191 69.7201 521.401 70.0801 522.611C70.4201 523.751 70.7599 524.901 71.0999 526.041C71.4199 527.111 71.7401 528.191 72.0601 529.261C72.3601 530.261 72.65 531.261 72.95 532.261C73.22 533.181 73.5001 534.111 73.7701 535.031C74.0201 535.871 74.2701 536.721 74.5201 537.561C74.7501 538.321 74.97 539.081 75.2 539.841C75.4 540.521 75.6001 541.191 75.8001 541.871C75.9701 542.461 76.1501 543.041 76.3201 543.631C76.7901 545.201 77.1301 546.841 77.8001 548.341C78.5501 550.011 79.8199 551.271 81.5999 551.791C83.0199 552.211 84.5601 552.281 86.0201 552.081C87.0301 551.941 87.6399 551.731 88.6499 551.591C88.8499 551.561 88.4499 551.621 88.6499 551.591C80.3899 553.441 79.7301 549.051 78.3001 544.891C71.7101 519.961 4.49008 298.621 2.79008 283.971C1.79008 275.401 9.72998 271.401 17.93 268.891C31.19 265.561 44.45 262.221 57.7 258.891C87.99 251.271 118.29 243.661 148.58 236.041C181.74 227.701 214.89 219.371 248.05 211.031C269.89 205.541 291.74 200.051 313.58 194.551C318.95 193.201 323.94 191.241 328.8 194.791C334.27 198.801 335.17 202.261 338 218.101L384.34 424.841" stroke="black" stroke-width="1.4" stroke-miterlimit="10" stroke-linecap="round" stroke-linejoin="round"/>
<path d="M538.28 546.371L289.63 680.671L288.7 680.171C283.4 676.901 279.1 674.631 273.8 671.371C261.45 663.761 249.09 656.141 236.74 648.531C223.61 640.441 210.48 632.341 197.35 624.251C184.67 616.431 171.99 608.621 159.31 600.801C149.01 594.451 138.74 588.041 128.45 581.671C118.18 575.321 116.61 574.961 97.19 563.091C94.01 561.151 90.49 559.071 89.4 555.511C88.37 552.131 89.33 545.581 93.36 544.451L122.94 531.801L125.36 533.661C125.36 533.661 365.73 435.431 365.17 434.871C364.61 434.311 362.57 433.201 362.57 433.201L384.34 424.831C384.34 424.831 394.01 421.301 405.74 428.181L442.02 443.501" stroke="black" stroke-width="1.4" stroke-miterlimit="10" stroke-linecap="round" stroke-linejoin="round"/>
<path d="M91.7401 545.281C91.7401 545.281 88.69 550.021 98.92 555.971C109.15 561.921 289.25 674.481 289.25 674.481L538.2 539.781" stroke="black" stroke-width="1.4" stroke-miterlimit="10" stroke-linecap="round" stroke-linejoin="round"/>
<path d="M426.29 447.561C426.29 447.561 410.45 441.001 401.24 436.961C392.03 432.911 386.06 436.321 386.06 436.321L120.36 547.331C114.27 549.101 117.15 552.791 117.15 552.791L206.73 607.141L386.06 521.561" stroke="black" stroke-width="1.4" stroke-miterlimit="10" stroke-linecap="round" stroke-linejoin="round"/>
<path d="M420.02 504.211L446.35 493.191" stroke="black" stroke-width="0.9868" stroke-miterlimit="10" stroke-linecap="round" stroke-linejoin="round"/>
<path d="M480.22 531.521L510.64 545.351L384.78 614.031L308.87 564.661L396.03 522.391" stroke="black" stroke-width="1.4" stroke-miterlimit="10" stroke-linecap="round" stroke-linejoin="round"/>
<path d="M373.52 425.751L86.96 543.831L9.99004 282.911L325.25 200.541L374.76 424.911L373.52 425.751Z" stroke="black" stroke-width="1.4" stroke-miterlimit="10" stroke-linecap="round" stroke-linejoin="round"/>
<path d="M289.25 674.491V680.161" stroke="black" stroke-width="1.2886" stroke-miterlimit="10" stroke-linecap="round" stroke-linejoin="round"/>
</svg>
